<mxfile host="app.diagrams.net" modified="2024-01-30T07:19:59.433Z" agent="Mozilla/5.0 (Windows NT 10.0; Win64; x64) AppleWebKit/537.36 (KHTML, like Gecko) Chrome/121.0.0.0 Safari/537.36 Edg/121.0.0.0" etag="SQF1tl-bfHTPVlVNqV16" version="23.0.2" type="device">
  <diagram id="C5RBs43oDa-KdzZeNtuy" name="Page-1">
    <mxGraphModel dx="1002" dy="569" grid="1" gridSize="10" guides="1" tooltips="1" connect="1" arrows="1" fold="1" page="1" pageScale="1" pageWidth="827" pageHeight="1169" math="0" shadow="0">
      <root>
        <mxCell id="WIyWlLk6GJQsqaUBKTNV-0" />
        <mxCell id="WIyWlLk6GJQsqaUBKTNV-1" parent="WIyWlLk6GJQsqaUBKTNV-0" />
        <mxCell id="jqN54qzZs661Mx_3aP5O-7" value="" style="edgeStyle=orthogonalEdgeStyle;rounded=0;orthogonalLoop=1;jettySize=auto;html=1;" edge="1" parent="WIyWlLk6GJQsqaUBKTNV-1" source="jqN54qzZs661Mx_3aP5O-0" target="jqN54qzZs661Mx_3aP5O-1">
          <mxGeometry relative="1" as="geometry" />
        </mxCell>
        <mxCell id="jqN54qzZs661Mx_3aP5O-0" value="data source" style="whiteSpace=wrap;html=1;aspect=fixed;" vertex="1" parent="WIyWlLk6GJQsqaUBKTNV-1">
          <mxGeometry x="90" y="80" width="80" height="80" as="geometry" />
        </mxCell>
        <mxCell id="jqN54qzZs661Mx_3aP5O-8" value="" style="edgeStyle=orthogonalEdgeStyle;rounded=0;orthogonalLoop=1;jettySize=auto;html=1;" edge="1" parent="WIyWlLk6GJQsqaUBKTNV-1" source="jqN54qzZs661Mx_3aP5O-1" target="jqN54qzZs661Mx_3aP5O-2">
          <mxGeometry relative="1" as="geometry" />
        </mxCell>
        <mxCell id="jqN54qzZs661Mx_3aP5O-1" value="Data ingestion" style="whiteSpace=wrap;html=1;aspect=fixed;" vertex="1" parent="WIyWlLk6GJQsqaUBKTNV-1">
          <mxGeometry x="230" y="80" width="80" height="80" as="geometry" />
        </mxCell>
        <mxCell id="jqN54qzZs661Mx_3aP5O-9" value="" style="edgeStyle=orthogonalEdgeStyle;rounded=0;orthogonalLoop=1;jettySize=auto;html=1;" edge="1" parent="WIyWlLk6GJQsqaUBKTNV-1" source="jqN54qzZs661Mx_3aP5O-2" target="jqN54qzZs661Mx_3aP5O-3">
          <mxGeometry relative="1" as="geometry" />
        </mxCell>
        <mxCell id="jqN54qzZs661Mx_3aP5O-2" value="Raw data store&amp;nbsp;&lt;br&gt;Data Lake gen 2" style="whiteSpace=wrap;html=1;aspect=fixed;" vertex="1" parent="WIyWlLk6GJQsqaUBKTNV-1">
          <mxGeometry x="230" y="190" width="80" height="80" as="geometry" />
        </mxCell>
        <mxCell id="jqN54qzZs661Mx_3aP5O-10" value="" style="edgeStyle=orthogonalEdgeStyle;rounded=0;orthogonalLoop=1;jettySize=auto;html=1;" edge="1" parent="WIyWlLk6GJQsqaUBKTNV-1" source="jqN54qzZs661Mx_3aP5O-3" target="jqN54qzZs661Mx_3aP5O-4">
          <mxGeometry relative="1" as="geometry" />
        </mxCell>
        <mxCell id="jqN54qzZs661Mx_3aP5O-3" value="Azure data bricks" style="whiteSpace=wrap;html=1;aspect=fixed;" vertex="1" parent="WIyWlLk6GJQsqaUBKTNV-1">
          <mxGeometry x="390" y="130" width="80" height="80" as="geometry" />
        </mxCell>
        <mxCell id="jqN54qzZs661Mx_3aP5O-11" value="" style="edgeStyle=orthogonalEdgeStyle;rounded=0;orthogonalLoop=1;jettySize=auto;html=1;" edge="1" parent="WIyWlLk6GJQsqaUBKTNV-1" source="jqN54qzZs661Mx_3aP5O-4" target="jqN54qzZs661Mx_3aP5O-5">
          <mxGeometry relative="1" as="geometry" />
        </mxCell>
        <mxCell id="jqN54qzZs661Mx_3aP5O-4" value="Transformed data" style="whiteSpace=wrap;html=1;aspect=fixed;" vertex="1" parent="WIyWlLk6GJQsqaUBKTNV-1">
          <mxGeometry x="550" y="140" width="80" height="80" as="geometry" />
        </mxCell>
        <mxCell id="jqN54qzZs661Mx_3aP5O-12" value="" style="edgeStyle=orthogonalEdgeStyle;rounded=0;orthogonalLoop=1;jettySize=auto;html=1;" edge="1" parent="WIyWlLk6GJQsqaUBKTNV-1" source="jqN54qzZs661Mx_3aP5O-5" target="jqN54qzZs661Mx_3aP5O-6">
          <mxGeometry relative="1" as="geometry" />
        </mxCell>
        <mxCell id="jqN54qzZs661Mx_3aP5O-5" value="azure data synapse" style="whiteSpace=wrap;html=1;aspect=fixed;" vertex="1" parent="WIyWlLk6GJQsqaUBKTNV-1">
          <mxGeometry x="700" y="140" width="80" height="80" as="geometry" />
        </mxCell>
        <mxCell id="jqN54qzZs661Mx_3aP5O-6" value="dashboard" style="whiteSpace=wrap;html=1;aspect=fixed;" vertex="1" parent="WIyWlLk6GJQsqaUBKTNV-1">
          <mxGeometry x="840" y="140" width="80" height="80" as="geometry" />
        </mxCell>
        <mxCell id="jqN54qzZs661Mx_3aP5O-13" value="Data Factory: enables to create, schedule, manage. Simplifies&amp;nbsp;ETL AND DATA INTEGREATION TASKS" style="text;html=1;strokeColor=none;fillColor=none;align=left;verticalAlign=middle;whiteSpace=wrap;rounded=0;" vertex="1" parent="WIyWlLk6GJQsqaUBKTNV-1">
          <mxGeometry x="160" y="10" width="200" height="50" as="geometry" />
        </mxCell>
      </root>
    </mxGraphModel>
  </diagram>
</mxfile>
